<svg width="20" height="20" viewBox="0 0 20 20" fill="none" xmlns="http://www.w3.org/2000/svg">
<path d="M1.66675 10.0002C1.66675 6.85746 1.66675 5.28612 2.64306 4.3098C3.61937 3.3335 5.19071 3.3335 8.33341 3.3335H11.6667C14.8094 3.3335 16.3808 3.3335 17.3571 4.3098C18.3334 5.28612 18.3334 6.85746 18.3334 10.0002V11.6668C18.3334 14.8095 18.3334 16.3809 17.3571 17.3572C16.3808 18.3335 14.8094 18.3335 11.6667 18.3335H8.33341C5.19071 18.3335 3.61937 18.3335 2.64306 17.3572C1.66675 16.3809 1.66675 14.8095 1.66675 11.6668V10.0002Z" stroke="#6E6E6E" stroke-width="1.5"/>
<path d="M5.83325 3.3335V2.0835" stroke="#6E6E6E" stroke-width="1.5" stroke-linecap="round"/>
<path d="M14.1667 3.3335V2.0835" stroke="#6E6E6E" stroke-width="1.5" stroke-linecap="round"/>
<path d="M2.08325 7.5H17.9166" stroke="#6E6E6E" stroke-width="1.5" stroke-linecap="round"/>
<path d="M14.9999 14.1668C14.9999 14.6271 14.6268 15.0002 14.1666 15.0002C13.7063 15.0002 13.3333 14.6271 13.3333 14.1668C13.3333 13.7066 13.7063 13.3335 14.1666 13.3335C14.6268 13.3335 14.9999 13.7066 14.9999 14.1668Z" fill="#6E6E6E"/>
<path d="M14.9999 10.8333C14.9999 11.2936 14.6268 11.6667 14.1666 11.6667C13.7063 11.6667 13.3333 11.2936 13.3333 10.8333C13.3333 10.3731 13.7063 10 14.1666 10C14.6268 10 14.9999 10.3731 14.9999 10.8333Z" fill="#6E6E6E"/>
<path d="M10.8334 14.1668C10.8334 14.6271 10.4603 15.0002 10.0001 15.0002C9.53983 15.0002 9.16675 14.6271 9.16675 14.1668C9.16675 13.7066 9.53983 13.3335 10.0001 13.3335C10.4603 13.3335 10.8334 13.7066 10.8334 14.1668Z" fill="#6E6E6E"/>
<path d="M10.8334 10.8333C10.8334 11.2936 10.4603 11.6667 10.0001 11.6667C9.53983 11.6667 9.16675 11.2936 9.16675 10.8333C9.16675 10.3731 9.53983 10 10.0001 10C10.4603 10 10.8334 10.3731 10.8334 10.8333Z" fill="#6E6E6E"/>
<path d="M6.66667 14.1668C6.66667 14.6271 6.29357 15.0002 5.83333 15.0002C5.3731 15.0002 5 14.6271 5 14.1668C5 13.7066 5.3731 13.3335 5.83333 13.3335C6.29357 13.3335 6.66667 13.7066 6.66667 14.1668Z" fill="#6E6E6E"/>
<path d="M6.66667 10.8333C6.66667 11.2936 6.29357 11.6667 5.83333 11.6667C5.3731 11.6667 5 11.2936 5 10.8333C5 10.3731 5.3731 10 5.83333 10C6.29357 10 6.66667 10.3731 6.66667 10.8333Z" fill="#6E6E6E"/>
</svg>
