<svg width="16" height="16" viewBox="0 0 16 16" fill="none" xmlns="http://www.w3.org/2000/svg">
<path d="M2 6.94463C2 4.81288 2 3.74702 2.25168 3.38844C2.50335 3.02986 3.50555 2.6868 5.50994 2.00069L5.89181 1.86998C6.93667 1.51232 7.45907 1.3335 8 1.3335C8.54093 1.3335 9.06333 1.51232 10.1082 1.86998L10.4901 2.00069C12.4945 2.6868 13.4967 3.02986 13.7483 3.38844C14 3.74702 14 4.81288 14 6.94463C14 7.26656 14 7.61576 14 7.99443C14 11.7531 11.174 13.5772 9.40093 14.3517C8.92 14.5618 8.67953 14.6668 8 14.6668C7.32047 14.6668 7.08 14.5618 6.59904 14.3517C4.82597 13.5772 2 11.7531 2 7.99443C2 7.61576 2 7.26656 2 6.94463Z" stroke="#99999A" stroke-width="1.5"/>
<path d="M7.66667 10.6668H8.33333C8.70153 10.6668 9 10.3684 9 10.0002V9.06596C9.5978 8.7201 10 8.07376 10 7.3335C10 6.22893 9.1046 5.3335 8 5.3335C6.8954 5.3335 6 6.22893 6 7.3335C6 8.07376 6.4022 8.7201 7 9.06596V10.0002C7 10.3684 7.29847 10.6668 7.66667 10.6668Z" stroke="#99999A" stroke-width="1.5" stroke-linejoin="round"/>
</svg>
